<svg width="48" height="48" viewBox="0 0 48 48" fill="none" xmlns="http://www.w3.org/2000/svg">
<path d="M35.0617 12C34.8826 12.0002 34.7073 12.0745 34.5565 12.2142C28.8565 17.3533 24.1849 24.2557 20.2871 32.4236C18.3157 28.5183 16.1204 25.1041 13.4352 22.836C13.3288 22.7395 13.2101 22.6749 13.0861 22.6461C12.9621 22.6172 12.8354 22.6247 12.7134 22.668C12.5915 22.7113 12.4768 22.7896 12.3762 22.8983C12.2756 23.0069 12.1911 23.1437 12.1278 23.3004C12.0645 23.4572 12.0236 23.6307 12.0076 23.8107C11.9916 23.9908 12.0008 24.1736 12.0347 24.3484C12.0686 24.5231 12.1264 24.6863 12.2048 24.8281C12.2831 24.97 12.3804 25.0876 12.4908 25.174C15.1978 27.4606 17.4971 31.0272 19.5514 35.407C19.638 35.591 19.7546 35.7414 19.8909 35.8448C20.0272 35.9483 20.1791 36.0015 20.3331 36C20.487 35.9984 20.6384 35.942 20.7737 35.8358C20.909 35.7296 21.0241 35.5769 21.1089 35.3911C25.0209 26.8146 29.7528 19.7379 35.5485 14.5126C35.7235 14.3593 35.8591 14.1274 35.9343 13.8523C36.0096 13.5772 36.0205 13.274 35.9653 12.9891C35.9101 12.7043 35.7919 12.4533 35.6287 12.2747C35.4655 12.0961 35.2664 11.9996 35.0617 12Z" fill="#C4C4C4"/>
<rect x="6.5" y="6.5" width="35" height="35" rx="7.5" stroke="#C4C4C4"/>
</svg>
