<svg width="48" height="48" viewBox="0 0 48 48" fill="none" xmlns="http://www.w3.org/2000/svg">
<rect x="6.5" y="6.5" width="35" height="35" rx="7.5" stroke="#C4C4C4"/>
<path d="M22 13C21.1776 13 20.5 13.6775 20.5 14.5V15.5H14C13.9338 15.4991 13.868 15.5113 13.8065 15.536C13.745 15.5607 13.6891 15.5974 13.6419 15.6439C13.5947 15.6904 13.5572 15.7459 13.5317 15.807C13.5061 15.8681 13.4929 15.9337 13.4929 16C13.4929 16.0663 13.5061 16.1319 13.5317 16.193C13.5572 16.2541 13.5947 16.3096 13.6419 16.3561C13.6891 16.4026 13.745 16.4393 13.8065 16.464C13.868 16.4887 13.9338 16.5009 14 16.5H21C21.1326 16.5 21.2598 16.4473 21.3536 16.3535C21.4473 16.2598 21.5 16.1326 21.5 16V14.5C21.5 14.2175 21.7175 14 22 14H26C26.2826 14 26.5 14.2175 26.5 14.5V16C26.5001 16.1326 26.5527 16.2598 26.6465 16.3535C26.7403 16.4473 26.8674 16.5 27 16.5H34C34.0663 16.5009 34.1321 16.4887 34.1936 16.464C34.255 16.4393 34.311 16.4026 34.3582 16.3561C34.4054 16.3096 34.4428 16.2541 34.4684 16.193C34.494 16.1319 34.5072 16.0663 34.5072 16C34.5072 15.9337 34.494 15.8681 34.4684 15.807C34.4428 15.7459 34.4054 15.6904 34.3582 15.6439C34.311 15.5974 34.255 15.5607 34.1936 15.536C34.1321 15.5113 34.0663 15.4991 34 15.5H27.5V14.5C27.5 13.6775 26.8225 13 26 13H22ZM15.4932 17.4932C15.4233 17.4937 15.3544 17.5089 15.2908 17.5378C15.2271 17.5666 15.1703 17.6084 15.1238 17.6606C15.0773 17.7128 15.0423 17.7741 15.021 17.8406C14.9997 17.9072 14.9925 17.9774 15 18.0469L16.3321 32.2334C16.4523 33.5134 17.5352 34.5 18.8213 34.5H24H29.1788C30.4645 34.5 31.5478 33.5136 31.668 32.2334L33 18.0469C33.0125 17.9148 32.9719 17.7832 32.8873 17.681C32.8027 17.5788 32.681 17.5144 32.5489 17.502C32.4168 17.4895 32.2852 17.5301 32.183 17.6147C32.0808 17.6993 32.0164 17.821 32.0039 17.9531L30.6729 32.1406C30.6001 32.9154 29.957 33.5 29.1788 33.5H24H18.8213C18.0424 33.5 17.4 32.9156 17.3272 32.1406L15.9961 17.9531C15.986 17.8271 15.9285 17.7095 15.8352 17.6242C15.7418 17.5388 15.6197 17.492 15.4932 17.4932ZM19.3233 18.9932C19.2535 18.9916 19.1841 19.0047 19.1197 19.0316C19.0552 19.0584 18.9971 19.0985 18.9491 19.1492C18.9011 19.1999 18.8642 19.2601 18.8409 19.3259C18.8175 19.3917 18.8082 19.4616 18.8135 19.5312L19.501 30.5312C19.5042 30.5974 19.5206 30.6623 19.5491 30.7221C19.5776 30.7819 19.6177 30.8355 19.6671 30.8797C19.7164 30.9238 19.7741 30.9578 19.8367 30.9795C19.8993 31.0012 19.9656 31.0102 20.0317 31.0061C20.0979 31.0019 20.1625 30.9847 20.2219 30.9553C20.2813 30.926 20.3343 30.8851 20.3778 30.8351C20.4213 30.7852 20.4544 30.727 20.4752 30.6641C20.496 30.6012 20.5041 30.5348 20.4991 30.4687L19.8116 19.4687C19.8054 19.3424 19.7516 19.2231 19.661 19.1349C19.5704 19.0466 19.4497 18.996 19.3233 18.9932ZM23.9922 18.9932C23.8598 18.9952 23.7336 19.0498 23.6413 19.1448C23.549 19.2398 23.4982 19.3676 23.5 19.5V30.5C23.4991 30.5663 23.5113 30.632 23.5361 30.6935C23.5608 30.755 23.5974 30.811 23.644 30.8581C23.6905 30.9053 23.7459 30.9428 23.807 30.9684C23.8682 30.994 23.9338 31.0071 24 31.0071C24.0663 31.0071 24.1319 30.994 24.193 30.9684C24.2542 30.9428 24.3096 30.9053 24.3561 30.8581C24.4026 30.811 24.4393 30.755 24.464 30.6935C24.4887 30.632 24.501 30.5663 24.5 30.5V19.5C24.501 19.4331 24.4884 19.3667 24.4632 19.3047C24.438 19.2428 24.4006 19.1865 24.3533 19.1392C24.3059 19.092 24.2496 19.0547 24.1876 19.0296C24.1255 19.0045 24.0591 18.9921 23.9922 18.9932ZM28.6622 18.9932C28.5383 18.9996 28.4212 19.0518 28.3337 19.1397C28.2462 19.2276 28.1944 19.3449 28.1885 19.4687L27.501 30.4687C27.496 30.5348 27.5041 30.6012 27.5249 30.6641C27.5457 30.727 27.5788 30.7852 27.6223 30.8351C27.6658 30.8851 27.7188 30.926 27.7782 30.9553C27.8376 30.9847 27.9022 31.0019 27.9684 31.0061C28.0345 31.0102 28.1008 31.0012 28.1634 30.9795C28.226 30.9578 28.2836 30.9238 28.333 30.8797C28.3824 30.8355 28.4225 30.7819 28.451 30.7221C28.4795 30.6623 28.4958 30.5974 28.4991 30.5312L29.1866 19.5312C29.1921 19.4604 29.1824 19.3891 29.1582 19.3222C29.134 19.2554 29.0958 19.1945 29.0461 19.1435C28.9965 19.0926 28.9366 19.0529 28.8704 19.0269C28.8041 19.001 28.7332 18.9895 28.6622 18.9932Z" fill="#C4C4C4"/>
</svg>
