<svg width="48" height="48" viewBox="0 0 48 48" fill="none" xmlns="http://www.w3.org/2000/svg">
<rect x="6.5" y="6.5" width="35" height="35" rx="7.5" stroke="#C4C4C4"/>
<g clip-path="url(#clip0_235_293)">
<path fill-rule="evenodd" clip-rule="evenodd" d="M31.9534 19.7647L26.4052 15.7412C26.1835 14.8109 25.352 14.1177 24.3525 14.1177C23.3063 14.1177 22.4438 14.8758 22.2715 15.8725L16.5313 19.7647H12.4414V33.8259H34.9421V19.7647H31.9534ZM24.3525 18.353C25.1374 18.353 25.8122 17.9224 26.1793 17.2899L29.204 19.7647H19.5364L22.5948 17.4156C22.976 17.9803 23.6212 18.353 24.3525 18.353ZM29.2973 28.3547L24.7219 30.7167L19.4606 24.055L13.8235 32.4706V21.1765H33.5882V32.4706L29.2973 28.3547Z" fill="#C4C4C4"/>
<path d="M30.7124 25.3074C31.4633 25.3074 32.072 24.6988 32.072 23.9479C32.072 23.1971 31.4633 22.5884 30.7124 22.5884C29.9616 22.5884 29.3529 23.1971 29.3529 23.9479C29.3529 24.6988 29.9616 25.3074 30.7124 25.3074Z" fill="#C4C4C4"/>
</g>
<defs>
<clipPath id="clip0_235_293">
<rect width="23" height="20" fill="white" transform="translate(12 14)"/>
</clipPath>
</defs>
</svg>
