<svg width="48" height="48" viewBox="0 0 48 48" fill="none" xmlns="http://www.w3.org/2000/svg">
<rect x="0.5" y="0.5" width="47" height="47" rx="7.5" stroke="#C4C4C4"/>
<path d="M31 34.706V12.2963C31.0001 11.861 30.8778 11.4346 30.6474 11.0669C30.4169 10.6992 30.0878 10.4053 29.6984 10.2195C29.309 10.0338 28.8754 9.96376 28.4481 10.0177C28.0208 10.0716 27.6176 10.2473 27.2853 10.5241L13.8274 21.7289C13.5686 21.9443 13.3603 22.2149 13.2172 22.5213C13.0742 22.8277 13 23.1623 13 23.5011C13 23.84 13.0742 24.1746 13.2172 24.481C13.3603 24.7874 13.5686 25.058 13.8274 25.2734L27.2853 36.4759C27.6173 36.7525 28.0201 36.9281 28.447 36.9822C28.8738 37.0363 29.3071 36.9667 29.6963 36.7814C30.0856 36.5962 30.4148 36.303 30.6456 35.936C30.8764 35.569 30.9993 35.1409 31 34.706Z" stroke="#C4C4C4" stroke-width="2" stroke-linecap="round" stroke-linejoin="round"/>
</svg>
