<svg width="48" height="48" viewBox="0 0 48 48" fill="none" xmlns="http://www.w3.org/2000/svg">
<path d="M40.4728 21.6431V23.5331C40.4728 24.0505 40.0537 24.4706 39.5353 24.4706C37.2519 24.4706 31.2727 24.4706 29.1731 24.4706C28.6557 24.4706 28.2356 24.0506 28.2356 23.5331V21.6431C28.2356 21.1247 28.6556 20.7056 29.1731 20.7056C30.7776 20.7056 38.2657 20.7056 39.5353 20.7056C40.0538 20.7057 40.4728 21.1247 40.4728 21.6431Z" fill="#C4C4C4"/>
<path d="M40.0022 37.649V47.0625H28.7063V37.649H32.4722V41.415H36.2372V37.649H40.0022Z" fill="#C4C4C4"/>
<path d="M38.1197 17.8809V20.7056H30.5897V17.8809C30.5897 17.3615 31.0106 16.9396 31.531 16.9396C33.6488 16.9396 35.3103 16.9396 37.1785 16.9396C37.6987 16.9397 38.1197 17.3615 38.1197 17.8809Z" fill="#C4C4C4"/>
<path d="M34.3547 2.34937C36.6938 2.34937 38.5903 4.24595 38.5903 6.58498C38.5903 8.24815 37.6322 9.68807 36.2372 10.381C34.1572 11.4158 31.6058 10.5746 30.5587 8.46848C29.9736 7.28842 29.9708 5.88822 30.5587 4.70252C31.2525 3.3075 32.6906 2.34937 34.3547 2.34937Z" fill="#C4C4C4"/>
<path d="M36.2372 37.649H32.4722V41.415H36.2372V37.649Z" fill="#C4C4C4"/>
<path d="M36.2372 10.381V16.9397H32.4722V10.381C33.6372 10.9605 35.0397 10.9767 36.2372 10.381Z" fill="#C4C4C4"/>
<path d="M20.8547 4.70252H30.5587C29.9713 5.88728 29.9731 7.28748 30.5587 8.46848H20.8547C21.2811 7.26226 21.2862 5.92314 20.8547 4.70252Z" fill="#C4C4C4"/>
<path d="M23.5294 44.2275V47.0626H7.52721V44.2275C7.52721 42.6741 8.78624 41.415 10.3398 41.415C12.0967 41.415 20.5297 41.415 20.717 41.415C22.2703 41.415 23.5294 42.674 23.5294 44.2275Z" fill="#C4C4C4"/>
<path d="M20.8547 4.70252C20.0793 2.50881 17.9869 0.9375 15.5277 0.9375C12.4087 0.9375 9.88027 3.4659 9.88027 6.58498C9.88027 9.69352 12.3993 12.2334 15.5277 12.2334C17.9519 12.2334 20.0675 10.6955 20.8537 8.46838H20.8547C21.281 7.26226 21.2862 5.92314 20.8547 4.70252Z" fill="#C4C4C4"/>
<path d="M15.5278 23.5294C11.6429 23.5294 8.46849 26.6759 8.46849 30.5897C8.46849 34.4773 11.6189 37.649 15.5278 37.649C19.405 37.649 22.5881 34.5073 22.5881 30.5897C22.5881 26.686 19.4203 23.5294 15.5278 23.5294Z" fill="#C4C4C4"/>
<path d="M20.7057 35.3878V41.415H10.351V35.3888C13.1432 38.4003 17.9098 38.4053 20.7057 35.3878Z" fill="#C4C4C4"/>
<path d="M18.8231 24.345C16.7906 23.2677 14.3074 23.2468 12.2334 24.3441V11.1732C14.195 12.5854 16.8531 12.5899 18.8231 11.1732C18.8231 12.5901 18.8231 23.0549 18.8231 24.345Z" fill="#C4C4C4"/>
<path d="M15.5278 27.2943C17.3475 27.2943 18.8231 28.7699 18.8231 30.5896C18.8231 32.4083 17.3475 33.8839 15.5278 33.8839C13.7082 33.8839 12.2335 32.4083 12.2335 30.5896C12.2334 28.77 13.7082 27.2943 15.5278 27.2943Z" fill="#C4C4C4"/>
<path d="M15.5278 4.70252C16.5676 4.70252 17.4103 5.54535 17.4103 6.58498C17.4103 7.62565 16.5675 8.46838 15.5278 8.46838C14.4881 8.46838 13.6454 7.62555 13.6454 6.58498C13.6453 5.54525 14.4881 4.70252 15.5278 4.70252Z" fill="#C4C4C4"/>
<path d="M23.5293 48C23.0116 48 22.5918 47.5802 22.5918 47.0625V44.227C22.5918 43.1931 21.7507 42.3519 20.7168 42.3519H10.3393C9.30539 42.3519 8.46425 43.1931 8.46425 44.227V47.0625C8.46425 47.5802 8.04449 48 7.52674 48C7.009 48 6.58923 47.5802 6.58923 47.0625V44.227C6.58923 42.1593 8.2715 40.477 10.3392 40.477H20.7167C22.7844 40.477 24.4666 42.1593 24.4666 44.227V47.0625C24.4668 47.5802 24.0471 48 23.5293 48Z" fill="#FF6B35"/>
<path d="M20.7054 42.3521C20.1876 42.3521 19.7679 41.9323 19.7679 41.4145V35.3881C19.7679 34.8704 20.1876 34.4506 20.7054 34.4506C21.2231 34.4506 21.6429 34.8704 21.6429 35.3881V41.4145C21.6429 41.9323 21.2231 42.3521 20.7054 42.3521Z" fill="#FF6B35"/>
<path d="M10.3508 42.3521C9.83302 42.3521 9.41325 41.9323 9.41325 41.4145V35.3881C9.41325 34.8704 9.83302 34.4506 10.3508 34.4506C10.8685 34.4506 11.2883 34.8704 11.2883 35.3881V41.4145C11.2883 41.9323 10.8685 42.3521 10.3508 42.3521Z" fill="#FF6B35"/>
<path d="M12.2334 25.282C11.7157 25.282 11.2959 24.8622 11.2959 24.3445V11.1734C11.2959 10.6557 11.7157 10.2359 12.2334 10.2359C12.7512 10.2359 13.1709 10.6557 13.1709 11.1734V24.3445C13.1709 24.8622 12.7512 25.282 12.2334 25.282Z" fill="#FF6B35"/>
<path d="M18.8227 25.282C18.305 25.282 17.8852 24.8622 17.8852 24.3445V11.1734C17.8852 10.6557 18.305 10.2359 18.8227 10.2359C19.3405 10.2359 19.7602 10.6557 19.7602 11.1734V24.3445C19.7602 24.8622 19.3404 25.282 18.8227 25.282Z" fill="#FF6B35"/>
<path d="M15.528 13.1709C11.8968 13.1709 8.94257 10.2167 8.94257 6.58546C8.94257 2.95418 11.8968 -6.67572e-06 15.528 -6.67572e-06C19.1593 -6.67572e-06 22.1135 2.95418 22.1135 6.58546C22.1135 10.2167 19.1593 13.1709 15.528 13.1709ZM15.528 1.87502C12.9306 1.87502 10.8176 3.98817 10.8176 6.58546C10.8176 9.18275 12.9307 11.2959 15.528 11.2959C18.1253 11.2959 20.2385 9.18275 20.2385 6.58546C20.2385 3.98817 18.1254 1.87502 15.528 1.87502Z" fill="#FF6B35"/>
<path d="M15.528 9.40553C13.973 9.40553 12.7079 8.14048 12.7079 6.58546C12.7079 5.03043 13.973 3.76529 15.528 3.76529C17.0831 3.76529 18.3482 5.03043 18.3482 6.58546C18.3482 8.14048 17.0831 9.40553 15.528 9.40553ZM15.528 5.64032C15.0068 5.64032 14.5828 6.06432 14.5828 6.58555C14.5828 7.10669 15.0068 7.53069 15.528 7.53069C16.0492 7.53069 16.4732 7.10669 16.4732 6.58555C16.4732 6.06423 16.0492 5.64032 15.528 5.64032Z" fill="#FF6B35"/>
<path d="M30.5592 5.64032H20.8541C20.3364 5.64032 19.9166 5.22055 19.9166 4.70281C19.9166 4.18506 20.3364 3.76529 20.8541 3.76529H30.5592C31.077 3.76529 31.4967 4.18506 31.4967 4.70281C31.4967 5.22055 31.077 5.64032 30.5592 5.64032Z" fill="#FF6B35"/>
<path d="M30.5592 9.40552H20.8541C20.3364 9.40552 19.9166 8.98576 19.9166 8.46801C19.9166 7.95027 20.3364 7.5305 20.8541 7.5305H30.5592C31.077 7.5305 31.4967 7.95027 31.4967 8.46801C31.4967 8.98576 31.077 9.40552 30.5592 9.40552Z" fill="#FF6B35"/>
<path d="M34.3546 11.759C31.5019 11.759 29.1811 9.43819 29.1811 6.58546C29.1811 3.73273 31.5019 1.41196 34.3546 1.41196C37.2074 1.41196 39.5281 3.73273 39.5281 6.58546C39.5281 9.43819 37.2074 11.759 34.3546 11.759ZM34.3546 3.28698C32.5359 3.28698 31.0562 4.76662 31.0562 6.58546C31.0562 8.4043 32.5358 9.88393 34.3546 9.88393C36.1735 9.88393 37.6531 8.4043 37.6531 6.58546C37.6531 4.76662 36.1734 3.28698 34.3546 3.28698Z" fill="#FF6B35"/>
<path d="M32.472 17.8776C31.9542 17.8776 31.5345 17.4578 31.5345 16.9401V10.3809C31.5345 9.86313 31.9542 9.44336 32.472 9.44336C32.9897 9.44336 33.4095 9.86313 33.4095 10.3809V16.9401C33.4094 17.4578 32.9896 17.8776 32.472 17.8776Z" fill="#FF6B35"/>
<path d="M36.2372 17.8776C35.7194 17.8776 35.2997 17.4578 35.2997 16.9401V10.3809C35.2997 9.86313 35.7194 9.44336 36.2372 9.44336C36.7549 9.44336 37.1747 9.86313 37.1747 10.3809V16.9401C37.1747 17.4578 36.7549 17.8776 36.2372 17.8776Z" fill="#FF6B35"/>
<path d="M41.4145 33.8801C40.8968 33.8801 40.477 33.4603 40.477 32.9426V28.7597L35.0307 25.4082H33.6787L28.2322 28.7598V32.9427C28.2322 33.4604 27.8125 33.8802 27.2947 33.8802C26.777 33.8802 26.3572 33.4604 26.3572 32.9427V28.236C26.3572 27.9104 26.5261 27.6082 26.8033 27.4376L32.922 23.6723C33.0697 23.5814 33.2398 23.5332 33.4133 23.5332H35.296C35.4695 23.5332 35.6396 23.5814 35.7874 23.6723L41.9059 27.4376C42.1831 27.6082 42.3521 27.9104 42.3521 28.236V32.9427C42.3521 33.4603 41.9323 33.8801 41.4145 33.8801Z" fill="#FF6B35"/>
<path d="M40.0026 48H28.7067C28.1889 48 27.7692 47.5802 27.7692 47.0625V37.6492C27.7692 37.1315 28.1889 36.7117 28.7067 36.7117H40.0027C40.5204 36.7117 40.9402 37.1315 40.9402 37.6492V47.0625C40.9401 47.5802 40.5203 48 40.0026 48ZM29.6441 46.125H39.0651V38.5867H29.6441V46.125Z" fill="#FF6B35"/>
<path d="M36.2372 42.352H32.4719C31.9541 42.352 31.5344 41.9323 31.5344 41.4145V37.6492C31.5344 37.1315 31.9541 36.7117 32.4719 36.7117C32.9896 36.7117 33.4094 37.1315 33.4094 37.6492V40.477H35.2997V37.6492C35.2997 37.1315 35.7194 36.7117 36.2372 36.7117C36.7549 36.7117 37.1747 37.1315 37.1747 37.6492V41.4145C37.1747 41.9323 36.7549 42.352 36.2372 42.352Z" fill="#FF6B35"/>
<path d="M47.0625 48H0.937513C0.419768 48 0 47.5802 0 47.0625C0 46.5447 0.419768 46.125 0.937513 46.125H47.0625C47.5802 46.125 48 46.5447 48 47.0625C48 47.5802 47.5802 48 47.0625 48Z" fill="#FF6B35"/>
<path d="M15.528 38.5867C11.1182 38.5867 7.53051 34.9991 7.53051 30.5893C7.53051 26.1795 11.1182 22.5918 15.528 22.5918C19.9379 22.5918 23.5255 26.1795 23.5255 30.5893C23.5255 34.9991 19.9379 38.5867 15.528 38.5867ZM15.528 24.4668C12.1521 24.4668 9.40553 27.2134 9.40553 30.5893C9.40553 33.9652 12.1521 36.7117 15.528 36.7117C18.904 36.7117 21.6504 33.9652 21.6504 30.5893C21.6504 27.2134 18.904 24.4668 15.528 24.4668Z" fill="#FF6B35"/>
<path d="M15.528 34.8214C13.1945 34.8214 11.2959 32.9229 11.2959 30.5893C11.2959 28.2556 13.1945 26.3571 15.528 26.3571C17.8616 26.3571 19.7602 28.2556 19.7602 30.5893C19.7602 32.9229 17.8617 34.8214 15.528 34.8214ZM15.528 28.2321C14.2283 28.2321 13.1709 29.2895 13.1709 30.5893C13.1709 31.889 14.2283 32.9464 15.528 32.9464C16.8277 32.9464 17.8851 31.889 17.8851 30.5893C17.8852 29.2895 16.8278 28.2321 15.528 28.2321Z" fill="#FF6B35"/>
<path d="M39.5357 25.4082H29.1735C28.1396 25.4082 27.2985 24.5671 27.2985 23.5332V21.6429C27.2985 20.609 28.1396 19.7679 29.1735 19.7679H39.5357C40.5696 19.7679 41.4108 20.609 41.4108 21.6429V23.5332C41.4107 24.5671 40.5695 25.4082 39.5357 25.4082ZM29.1735 21.6429V23.5332C29.6194 23.5332 26.7187 23.5332 39.5369 23.5331L39.5357 21.6429H29.1735Z" fill="#FF6B35"/>
<path d="M38.1199 21.6429C37.6022 21.6429 37.1824 21.2231 37.1824 20.7054V17.8814L31.5306 17.8776L31.5268 20.7054C31.5268 21.2231 31.1071 21.6429 30.5893 21.6429C30.0716 21.6429 29.6518 21.2231 29.6518 20.7054V17.8814C29.6518 16.8454 30.4946 16.0026 31.5306 16.0026H37.1786C38.2146 16.0026 39.0574 16.8454 39.0574 17.8814V20.7054C39.0574 21.2231 38.6377 21.6429 38.1199 21.6429Z" fill="#FF6B35"/>
</svg>
